<?xml version="1.0" encoding="UTF-8"?>
<svg id="Vrstva_2" data-name="Vrstva 2" xmlns="http://www.w3.org/2000/svg" viewBox="0 0 1106.6 1345.87">
  <defs>
    <style>
      .cls-1 {
        fill: #001ef4;
      }

      .cls-2 {
        fill: #001ef4;
      }
    </style>
  </defs>
  <g id="Vrstva_1-2" data-name="Vrstva 1">
    <path d="M982.3,185.06c-38.03-58.56-92.53-104.03-163.56-136.45C747.71,16.21,664.2,0,568.26,0H0v779.49h568.26c95.94,0,179.45-16.19,250.48-48.61,71.03-32.39,220.57-66.6,220.57-136.45v-203.75c0-78.51-19.01-147.03-57.01-205.62ZM601.12,593.74c-5.19-.23-10.06-.24-14.54,0-8.36.46-16.97.69-25.8.69H243.01V192.54h317.77c79.74,0,140.19,17.14,181.32,51.4,41.12,34.29,61.68,83.19,61.68,146.74v203.06c0,45.69-131.38,3.07-202.66,0ZM352.36,682.55H79.45l100.94,96.94h282.2l-110.23-96.94Z"/>
    <polygon class="cls-1" points="527.68 836.74 243.01 836.74 243.01 839.63 240 836.74 0 836.74 0 779.49 462.59 779.49 527.68 836.74"/>
    <polygon class="cls-2" points="243.01 839.63 243.01 1345.87 0 1345.87 0 836.74 240 836.74 243.01 839.63"/>
    <polygon class="cls-2" points="1106.6 1345.87 770.14 1345.87 243.01 839.63 243.01 836.74 527.68 836.74 1106.6 1345.87"/>
    <rect class="cls-2" y="593.74" width="1039.31" height="185.75"/>
  </g>
</svg>