<?xml version="1.0" encoding="UTF-8"?>
<svg id="Vrstva_2" data-name="Vrstva 2" xmlns="http://www.w3.org/2000/svg" viewBox="0 0 1287.79 1437.77">
  <defs>
    <style>
      .cls-1 {
        fill: #001ef4;
      }
    </style>
  </defs>
  <g id="Vrstva_1-2" data-name="Vrstva 1">
    <g>
      <path d="M1173.36,226.05c-44.47-73.01-106.71-128.93-186.74-167.78C906.59,19.42,813.22,0,706.5,0H85.9v1437.77h390.34V311.7h137.6c45.86,0,85.05,6.21,117.59,18.6,32.52,12.41,57.57,31.6,75.12,57.57,17.55,25.98,26.32,59.56,26.32,100.74s-8.77,73.72-26.32,98.99c-17.55,25.28-42.6,43.65-75.12,55.11-32.54,11.47-71.73,17.2-117.59,17.2h-2.52v303.28h81.15c109.51,0,205.34-18.01,287.48-54.05,5.38-2.36,10.69-4.8,15.92-7.31,74.52-35.8,133.09-86.71,175.74-152.76,45.63-70.66,68.44-157.48,68.44-260.46s-22.23-189.55-66.69-262.56Z"/>
      <path class="cls-1" d="M1287.79,1437.77h-424.03l-252.44-474.58h81.15c109.51,0,205.34-18.01,287.48-54.05,5.38-2.36,10.69-4.8,15.92-7.31l291.92,535.94Z"/>
    </g>
    <polyline points="85.9 0 85.9 293.11 0 293.11"/>
    <polyline points="611.32 659.91 611.32 962.84 525.42 962.84"/>
  </g>
</svg>